# xmcd CD database file
#
# Track frame offsets:
#	150
#	21741
#	36617
#	52384
#	66960
#	77029
#	92594
#	106327
#	121962
#	142020
#	158400
#	171311
#	211689
#	229936
#	244206
#	255766
#	269471
#	281177
#	292820
#	322088
#	335551
#
# Disc length: 4788 seconds
#
# Revision: 1
# Processed by: cddbd v1.5.2PL0 Copyright (c) Steve Scherf et al.
# Submitted via: CDex 1.51
#
DISCID=4312b215
DTITLE=Medicine Head - New Bottles Old Medicine
DYEAR=1970
DGENRE=Blues
TTITLE0=When Night Falls
TTITLE1=Ooee Baby
TTITLE2=Next Time The Sun Comes Round
TTITLE3=This Love Of Old
TTITLE4=Home's Odyssey
TTITLE5=Oh My Heart To Peace
TTITLE6=DoIit Now
TTITLE7=Be It As We Are
TTITLE8=Fire Under Mountain
TTITLE9=Two Men Now
TTITLE10=Crazy 'bout You Baby
TTITLE11=Goin' Home
TTITLE12=His Guiding Hand
TTITLE13=Walkin' Blues
TTITLE14=Coast To Coast
TTITLE15=All For Tomorrow
TTITLE16=(And The) Pictures In The Sky
TTITLE17=Natural Sight
TTITLE18=Just Like Tom Thumb's Blues (live)
TTITLE19=Blue Suede Shoes (live)
TTITLE20=To Train Time (live)
EXTD=YEAR: 1970
EXTT0=
EXTT1=
EXTT2=
EXTT3=
EXTT4=
EXTT5=
EXTT6=
EXTT7=
EXTT8=
EXTT9=
EXTT10=
EXTT11=
EXTT12=
EXTT13=
EXTT14=
EXTT15=
EXTT16=
EXTT17=
EXTT18=
EXTT19=
EXTT20=
PLAYORDER=
